<svg xmlns="http://www.w3.org/2000/svg" width="256" height="256" viewBox="0 0 100 100"><rect width="100" height="100" rx="20" fill="#edae1c"></rect><path fill="#fff" d="M49.82 49.87L49.82 49.87Q49.82 62.92 42.39 69.85Q34.97 76.79 20.95 76.79L20.95 76.79L5.99 76.79L5.99 23.97L22.58 23.97Q35.51 23.97 42.67 30.80Q49.82 37.62 49.82 49.87ZM38.18 50.16L38.18 50.16Q38.18 33.14 23.15 33.14L23.15 33.14L17.19 33.14L17.19 67.54L22.00 67.54Q38.18 67.54 38.18 50.16ZM94.01 67.40L94.01 76.79L57.08 76.79L57.08 69.02L70.34 55.62Q76.23 49.58 78.04 47.25Q79.85 44.92 80.64 42.94Q81.44 40.95 81.44 38.82L81.44 38.82Q81.44 35.64 79.68 34.08Q77.93 32.53 75.00 32.53L75.00 32.53Q71.93 32.53 69.04 33.94Q66.15 35.35 63.01 37.95L63.01 37.95L56.94 30.76Q60.84 27.44 63.41 26.06Q65.97 24.69 69.01 23.95Q72.04 23.21 75.80 23.21L75.80 23.21Q80.75 23.21 84.54 25.01Q88.34 26.82 90.43 30.07Q92.53 33.32 92.53 37.52L92.53 37.52Q92.53 41.17 91.25 44.36Q89.96 47.56 87.27 50.92Q84.58 54.28 77.79 60.50L77.79 60.50L70.99 66.89L70.99 67.40L94.01 67.40Z"></path></svg>